HIERARCHY
ROOT hip
{
  OFFSET 0 0 0
  CHANNELS 6 Xposition Yposition Zposition Zrotation Yrotation Xrotation
  JOINT abdomen
  {
    OFFSET 0 20.6881 -0.73152
    CHANNELS 3 Zrotation Xrotation Yrotation
    JOINT chest
    {
      OFFSET 0 11.7043 -0.48768
      CHANNELS 3 Zrotation Xrotation Yrotation
      JOINT neck
      {
        OFFSET 0 22.1894 -2.19456
        CHANNELS 3 Zrotation Xrotation Yrotation
        JOINT head
        {
          OFFSET -0.24384 7.07133 1.2192
          CHANNELS 3 Zrotation Xrotation Yrotation
          JOINT leftEye
          {
            OFFSET 4.14528 8.04674 8.04672
            CHANNELS 3 Zrotation Xrotation Yrotation
            End Site
            {
              OFFSET 1 0 0
            }
          }
          JOINT rightEye
          {
            OFFSET -3.6576 8.04674 8.04672
            CHANNELS 3 Zrotation Xrotation Yrotation
            End Site
            {
              OFFSET 1 0 0
            }
          }
        }
      }
      JOINT rCollar
      {
        OFFSET -2.68224 19.2634 -4.8768
        CHANNELS 3 Zrotation Xrotation Yrotation
        JOINT rShldr
        {
          OFFSET -8.77824 -1.95073 1.46304
          CHANNELS 3 Zrotation Xrotation Yrotation
          JOINT rForeArm
          {
            OFFSET -28.1742 -1.7115 0.48768
            CHANNELS 3 Zrotation Xrotation Yrotation
            JOINT rHand
            {
              OFFSET -22.5879 0.773209 7.07136
              CHANNELS 3 Zrotation Xrotation Yrotation
              JOINT rThumb1
              {
                OFFSET -1.2192 -0.487915 3.41376
                CHANNELS 3 Zrotation Xrotation Yrotation
                JOINT rThumb2
                {
                  OFFSET -3.37035 -0.52449 3.41376
                  CHANNELS 3 Zrotation Xrotation Yrotation
                  End Site
                  {
                    OFFSET -1.78271 -1.18214 1.43049
                  }
                }
              }
              JOINT rIndex1
              {
                OFFSET -7.75947 0.938293 5.60832
                CHANNELS 3 Zrotation Xrotation Yrotation
                JOINT rIndex2
                {
                  OFFSET -2.54057 -0.884171 1.56538
                  CHANNELS 3 Zrotation Xrotation Yrotation
                  End Site
                  {
                    OFFSET -1.62519 -0.234802 1.16502
                  }
                }
              }
              JOINT rMid1
              {
                OFFSET -8.24714 1.18213 3.41376
                CHANNELS 3 Zrotation Xrotation Yrotation
                JOINT rMid2
                {
                  OFFSET -3.10165 -0.590103 1.0647
                  CHANNELS 3 Zrotation Xrotation Yrotation
                  End Site
                  {
                    OFFSET -2.48547 -0.328903 0.83742
                  }
                }
              }
              JOINT rRing1
              {
                OFFSET -8.82822 0.546677 1.51678
                CHANNELS 3 Zrotation Xrotation Yrotation
                JOINT rRing2
                {
                  OFFSET -2.60934 -0.819778 -0.0198488
                  CHANNELS 3 Zrotation Xrotation Yrotation
                  End Site
                  {
                    OFFSET -2.33842 -0.294052 0.168128
                  }
                }
              }
              JOINT rPinky1
              {
                OFFSET -8.27202 -0.0477905 -0.4584
                CHANNELS 3 Zrotation Xrotation Yrotation
                JOINT rPinky2
                {
                  OFFSET -1.82734 -0.647385 -0.700984
                  CHANNELS 3 Zrotation Xrotation Yrotation
                  End Site
                  {
                    OFFSET -1.69225 -0.51767 -0.607171
                  }
                }
              }
            }
          }
        }
      }
      JOINT lCollar
      {
        OFFSET 2.68224 19.2634 -4.8768
        CHANNELS 3 Zrotation Xrotation Yrotation
        JOINT lShldr
        {
          OFFSET 8.77824 -1.95073 1.46304
          CHANNELS 3 Zrotation Xrotation Yrotation
          JOINT lForeArm
          {
            OFFSET 28.1742 -1.7115 0.48768
            CHANNELS 3 Zrotation Xrotation Yrotation
            JOINT lHand
            {
              OFFSET 22.5879 0.773209 7.07136
              CHANNELS 3 Zrotation Xrotation Yrotation
              JOINT lThumb1
              {
                OFFSET 1.2192 -0.487915 3.41376
                CHANNELS 3 Zrotation Xrotation Yrotation
                JOINT lThumb2
                {
                  OFFSET 3.37035 -0.52449 3.41376
                  CHANNELS 3 Zrotation Xrotation Yrotation
                  End Site
                  {
                    OFFSET 1.78271 -1.18214 1.43049
                  }
                }
              }
              JOINT lIndex1
              {
                OFFSET 7.75947 0.938293 5.60832
                CHANNELS 3 Zrotation Xrotation Yrotation
                JOINT lIndex2
                {
                  OFFSET 2.54057 -0.884171 1.56538
                  CHANNELS 3 Zrotation Xrotation Yrotation
                  End Site
                  {
                    OFFSET 1.62519 -0.234802 1.16502
                  }
                }
              }
              JOINT lMid1
              {
                OFFSET 8.24714 1.18213 3.41376
                CHANNELS 3 Zrotation Xrotation Yrotation
                JOINT lMid2
                {
                  OFFSET 3.10165 -0.590103 1.0647
                  CHANNELS 3 Zrotation Xrotation Yrotation
                  End Site
                  {
                    OFFSET 2.48547 -0.328903 0.83742
                  }
                }
              }
              JOINT lRing1
              {
                OFFSET 8.82822 0.546677 1.51678
                CHANNELS 3 Zrotation Xrotation Yrotation
                JOINT lRing2
                {
                  OFFSET 2.60934 -0.819778 -0.0198488
                  CHANNELS 3 Zrotation Xrotation Yrotation
                  End Site
                  {
                    OFFSET 2.33842 -0.294052 0.168128
                  }
                }
              }
              JOINT lPinky1
              {
                OFFSET 8.27202 -0.0477905 -0.4584
                CHANNELS 3 Zrotation Xrotation Yrotation
                JOINT lPinky2
                {
                  OFFSET 1.82734 -0.647385 -0.700984
                  CHANNELS 3 Zrotation Xrotation Yrotation
                  End Site
                  {
                    OFFSET 1.69225 -0.51767 -0.607171
                  }
                }
              }
            }
          }
        }
      }
    }
  }
  JOINT rButtock
  {
    OFFSET -8.77824 4.35084 1.2192
    CHANNELS 3 Zrotation Xrotation Yrotation
    JOINT rThigh
    {
      OFFSET 0 -1.70687 -2.19456
      CHANNELS 3 Zrotation Xrotation Yrotation
      JOINT rShin
      {
        OFFSET 0 -36.8199 0.73152
        CHANNELS 3 Zrotation Xrotation Yrotation
        JOINT rFoot
        {
          OFFSET 0.73152 -45.1104 -5.12064
          CHANNELS 3 Zrotation Xrotation Yrotation
          End Site
          {
            OFFSET -1.1221 -3.69964 12.103
          }
        }
      }
    }
  }
  JOINT lButtock
  {
    OFFSET 8.77824 4.35084 1.2192
    CHANNELS 3 Zrotation Xrotation Yrotation
    JOINT lThigh
    {
      OFFSET 0 -1.70687 -2.19456
      CHANNELS 3 Zrotation Xrotation Yrotation
      JOINT lShin
      {
        OFFSET 0 -36.8199 0.73152
        CHANNELS 3 Zrotation Xrotation Yrotation
        JOINT lFoot
        {
          OFFSET -0.73152 -45.1104 -5.12064
          CHANNELS 3 Zrotation Xrotation Yrotation
          End Site
          {
            OFFSET 1.1221 -3.69964 12.103
          }
        }
      }
    }
  }
}
MOTION
Frames:	7
Frame Time:	0.00833333
0.020599 70.1972 0.093985 -11.2377 -26.3214 3.6595 5.38119 19.0733 12.7633 -0.849315 -8.7125 3.63366 -2.98039 12.6541 -0.376227 7.86875 -29.2109 1.47523 -0.0 0.0 0.0 -0.0 0.0 0.0 0.0 0.0 0.0 49.5296 50.7644 13.2285 -26.2441 -24.0777 57.802902 -0.339588 16.3512 2.36318 -0.0 0.0 0.0 -0.0 0.0 0.0 -0.0 0.0 0.0 7.73091 5.47488 0.417314 -0.0 0.0 0.0 2.90554 0.965183 0.102902 -0.0 0.0 0.0 10.2786 0.731801 0.025912 -0.0 0.0 0.0 2.22167 -0.733487 -0.20892 0.0 0.0 0.0 -55.7844 31.783 -23.2723 22.2969 -16.2096 -44.5997 0.010573 -2.93459 0.412794 0.0 -0.0 -0.0 0.0 -0.0 -0.0 0.0 -0.0 -0.0 -7.73091 5.47488 -0.417314 0.0 -0.0 -0.0 -2.90554 0.965183 -0.102902 0.0 -0.0 -0.0 -10.2786 0.731801 -0.025912 0.0 -0.0 -0.0 -2.22167 -0.733487 0.20892 -0.0 0.0 -0.0 -4.3619 0.680091 -6.1842 -0.334733 48.1479 1.96946 -19.1052 -20.0142 -33.5946 0.0 0.0 0.0 61.034702 -52.7396 53.4945 2.44517 71.6234 -2.52604 0.219165 1.77693 -0.785474
0.013 70.1821 0.146997 -11.2946 -26.3011 3.69 5.35299 19.0877 12.723 -0.870068 -8.72334 3.61945 -2.96748 12.6233 -0.37025 7.86408 -29.050198 1.47521 -0.0 0.0 0.0 -0.0 0.0 0.0 0.0 0.0 0.0 49.8243 50.6439 12.9396 -26.2648 -24.1337 57.8926 -0.333099 16.2002 2.34012 -0.0 -0.0 0.0 -0.0 -0.0 0.0 -0.0 -0.0 0.0 7.73091 5.47488 0.417314 -0.0 -0.0 0.0 2.90554 0.965183 0.102902 -0.0 -0.0 0.0 10.2786 0.731801 0.025912 -0.0 -0.0 0.0 2.22167 -0.733487 -0.20892 0.0 0.0 0.0 -55.7588 31.7448 -23.2679 22.2713 -16.1701 -44.529 0.010838 -2.97107 0.417936 0.0 0.0 -0.0 0.0 0.0 -0.0 0.0 0.0 -0.0 -7.73091 5.47488 -0.417314 0.0 0.0 -0.0 -2.90554 0.965183 -0.102902 0.0 0.0 -0.0 -10.2786 0.731801 -0.025912 0.0 0.0 -0.0 -2.22167 -0.733487 0.20892 -0.0 0.0 -0.0 -4.43029 0.687311 -6.21597 -0.335344 48.1902 1.97276 -19.0425 -19.7464 -33.7278 0.0 0.0 0.0 61.3022 -52.6437 54.0254 2.47336 71.7932 -2.56422 0.216351 1.94535 -0.704869
0.013201 70.1672 0.199997 -11.3188 -26.2493 3.7018 5.4063 19.1115 12.6853 -0.897785 -8.74904 3.60956 -2.9582 12.5926 -0.369398 7.85932 -28.884197 1.46474 -0.0 0.0 0.0 -0.0 0.0 0.0 0.0 0.0 -0.0 50.1295 50.521 12.6366 -26.2853 -24.1897 57.982998 -0.32516 16.0142 2.31175 -0.0 -0.0 0.0 -0.0 -0.0 0.0 -0.0 -0.0 0.0 7.73091 5.47488 0.417314 -0.0 -0.0 0.0 2.90554 0.965183 0.102902 -0.0 -0.0 0.0 10.2786 0.731801 0.025912 -0.0 -0.0 0.0 2.22167 -0.733487 -0.20892 0.0 0.0 -0.0 -55.7544 31.718801 -23.2596 22.24 -16.122 -44.4427 0.010383 -2.91166 0.409562 0.0 0.0 0.0 0.0 0.0 0.0 0.0 0.0 0.0 -7.73091 5.47488 -0.417314 0.0 0.0 0.0 -2.90554 0.965183 -0.102902 0.0 0.0 0.0 -10.2786 0.731801 -0.025912 0.0 0.0 0.0 -2.22167 -0.733487 0.20892 -0.0 0.0 -0.0 -4.40947 0.712878 -6.28688 -0.33512 48.2268 1.97949 -19.0455 -19.7075 -33.7748 0.0 0.0 0.0 61.6116 -52.5248 54.5211 2.49678 71.9366 -2.59795 0.210611 2.0666 -0.641526
0.0 70.1618 0.263 -11.3872 -26.2374 3.7138 5.52049 19.1356 12.6447 -0.932379 -8.78082 3.60133 -2.9501 12.5574 -0.373395 7.85509 -28.6986 1.44362 -0.0 0.0 0.0 -0.0 0.0 0.0 0.0 0.0 -0.0 50.4433 50.3938 12.3272 -26.3051 -24.2437 58.0702 -0.316104 15.797801 2.27884 -0.0 -0.0 0.0 -0.0 -0.0 0.0 -0.0 -0.0 0.0 7.73091 5.47488 0.417314 -0.0 -0.0 0.0 2.90554 0.965183 0.102902 -0.0 -0.0 0.0 10.2786 0.731801 0.025912 -0.0 -0.0 0.0 2.22167 -0.733487 -0.20892 0.0 0.0 -0.0 -55.7599 31.7021 -23.2539 22.2022 -16.064 -44.3388 0.009452 -2.78206 0.391301 0.0 0.0 0.0 0.0 0.0 0.0 0.0 0.0 0.0 -7.73091 5.47488 -0.417314 0.0 0.0 0.0 -2.90554 0.965183 -0.102902 0.0 0.0 0.0 -10.2786 0.731801 -0.025912 0.0 0.0 0.0 -2.22167 -0.733487 0.20892 -0.0 0.0 -0.0 -4.32422 0.75335 -6.38863 -0.334248 48.2535 1.98788 -19.0871 -19.8024 -33.7712 0.0 0.0 0.0 61.9411 -52.3937 54.9831 2.51602 72.0579 -2.62795 0.202628 2.15335 -0.594572
0.001499 70.1622 0.350988 -11.3449 -26.2396 3.6545 5.63752 19.1525 12.6071 -0.962587 -8.813 3.59441 -2.94437 12.5285 -0.377623 7.85089 -28.5278 1.42302 -0.0 0.0 0.0 -0.0 0.0 0.0 0.0 0.0 -0.0 50.7609 50.2671 12.0119 -26.3265 -24.3026 58.1648 -0.307338 15.5834 2.24631 -0.0 -0.0 0.0 -0.0 -0.0 0.0 -0.0 -0.0 0.0 7.73091 5.47488 0.417314 -0.0 -0.0 0.0 2.90554 0.965183 0.102902 -0.0 -0.0 0.0 10.2786 0.731801 0.025912 -0.0 -0.0 0.0 2.22167 -0.733487 -0.20892 0.0 0.0 -0.0 -55.7801 31.689302 -23.2406 22.1639 -16.0055 -44.2344 0.008466 -2.63147 0.37009 0.0 0.0 0.0 0.0 0.0 0.0 0.0 0.0 0.0 -7.73091 5.47488 -0.417314 0.0 0.0 0.0 -2.90554 0.965183 -0.102902 0.0 0.0 0.0 -10.2786 0.731801 -0.025912 0.0 0.0 0.0 -2.22167 -0.733487 0.20892 -0.0 0.0 -0.0 -4.23067 0.784423 -6.49939 -0.333556 48.2822 1.99577 -19.1279 -19.9319 -33.7366 0.0 0.0 0.0 62.242805 -52.2587 55.4043 2.53105 72.1546 -2.65326 0.193757 2.22483 -0.562257
-0.0223 70.1796 0.384986 -11.4796 -26.2095 3.6928 5.69937 19.155 12.5788 -0.977141 -8.83992 3.58845 -2.94219 12.5163 -0.377471 7.84602 -28.4061 1.41398 -0.0 0.0 0.0 -0.0 0.0 0.0 0.0 0.0 -0.0 51.0777 50.1458 11.6911 -26.3521 -24.3733 58.2776 -0.300122 15.4031 2.21902 -0.0 -0.0 0.0 -0.0 -0.0 0.0 -0.0 -0.0 0.0 7.73091 5.47488 0.417314 -0.0 -0.0 0.0 2.90554 0.965183 0.102902 -0.0 -0.0 0.0 10.2786 0.731801 0.025912 -0.0 -0.0 0.0 2.22167 -0.733487 -0.20892 0.0 0.0 -0.0 -55.8196 31.675201 -23.2096 22.1315 -15.9561 -44.1463 0.007728 -2.50913 0.352862 0.0 0.0 0.0 0.0 0.0 0.0 0.0 0.0 0.0 -7.73091 5.47488 -0.417314 0.0 0.0 0.0 -2.90554 0.965183 -0.102902 0.0 0.0 0.0 -10.2786 0.731801 -0.025912 0.0 0.0 0.0 -2.22167 -0.733487 0.20892 -0.0 0.0 -0.0 -4.18518 0.781819 -6.59728 -0.333879 48.3248 2.001 -19.129 -19.9971 -33.6906 0.0 0.0 0.0 62.4691 -52.1279 55.7783 2.54185 72.224 -2.67292 0.185267 2.30025 -0.542829
-0.0172 70.2104 0.447988 -11.4431 -26.2222 3.7075 5.68696 19.1415 12.5653 -0.969445 -8.86099 3.58455 -2.94704 12.5323 -0.36973 7.84235 -28.3602 1.42497 -0.0 0.0 0.0 -0.0 0.0 0.0 0.0 0.0 -0.0 51.3963 50.0286 11.3567 -26.3827 -24.4588 58.4143 -0.295223 15.279 2.20027 -0.0 -0.0 0.0 -0.0 -0.0 0.0 -0.0 -0.0 0.0 7.73091 5.47488 0.417314 -0.0 -0.0 0.0 2.90554 0.965183 0.102902 -0.0 -0.0 0.0 10.2786 0.731801 0.025912 -0.0 -0.0 0.0 2.22167 -0.733487 -0.20892 0.0 0.0 -0.0 -55.8851 31.659 -23.1565 22.1061 -15.917401 -44.0772 0.007151 -2.41221 0.339216 0.0 0.0 0.0 0.0 0.0 0.0 0.0 0.0 0.0 -7.73091 5.47488 -0.417314 0.0 0.0 0.0 -2.90554 0.965183 -0.102902 0.0 0.0 0.0 -10.2786 0.731801 -0.025912 0.0 0.0 0.0 -2.22167 -0.733487 0.20892 -0.0 0.0 -0.0 -4.2048 0.731061 -6.68879 -0.335725 48.3907 2.00256 -19.0816 -19.9699 -33.6405 0.0 0.0 0.0 62.5981 -51.9978 56.0914 2.54752 72.2601 -2.68568 0.176492 2.36771 -0.54697
